<?xml version="1.0" standalone="no"?>
<!DOCTYPE svg PUBLIC "-//W3C//DTD SVG 20010904//EN"
 "http://www.w3.org/TR/2001/REC-SVG-20010904/DTD/svg10.dtd">
<svg version="1.0" xmlns="http://www.w3.org/2000/svg"
 width="600.000000pt" height="600.000000pt" viewBox="0 0 600.000000 600.000000"
 preserveAspectRatio="xMidYMid meet">
<metadata>
Created by potrace 1.14, written by Peter Selinger 2001-2017
</metadata>
<g transform="translate(0.000000,600.000000) scale(0.100000,-0.100000)"
fill="#000000" stroke="none">
<path d="M0 3000 l0 -3000 3000 0 3000 0 0 3000 0 3000 -3000 0 -3000 0 0
-3000z m3079 724 c88 -30 164 -106 178 -176 3 -18 10 -38 14 -44 5 -6 10 -67
12 -135 l2 -124 -107 -3 -108 -3 0 100 c0 118 -16 162 -66 186 -42 20 -73 19
-107 -4 -65 -42 -62 -21 -62 -516 l0 -450 23 -32 c25 -35 47 -45 97 -45 52 0
72 10 94 48 18 31 21 52 21 165 l0 129 112 0 111 0 -6 -145 c-6 -143 -24 -231
-53 -266 -8 -8 -14 -19 -14 -24 0 -13 -61 -65 -100 -85 -90 -46 -250 -45 -348
1 -50 24 -108 91 -137 157 -19 45 -20 67 -20 547 0 482 1 502 20 545 36 78 58
107 105 138 92 60 230 75 339 36z m1610 1 c126 -44 200 -164 201 -322 l0 -73
-105 0 -105 0 0 55 c0 70 -24 120 -68 141 -67 31 -132 -2 -153 -78 -24 -92 26
-215 128 -311 186 -175 265 -273 280 -349 3 -16 10 -31 14 -34 5 -3 9 -56 9
-117 -1 -111 -20 -201 -49 -230 -6 -6 -11 -15 -11 -21 0 -14 -60 -65 -100 -86
-58 -29 -160 -42 -237 -30 -89 15 -128 34 -183 91 -62 65 -85 135 -85 259 l0
95 85 3 c133 5 130 7 130 -93 0 -73 3 -87 23 -110 45 -53 139 -48 181 8 17 23
21 42 20 97 -2 104 -26 143 -183 301 -75 75 -143 147 -151 159 -8 12 -19 28
-25 34 -16 18 -55 102 -55 119 0 9 -4 19 -10 22 -6 4 -10 54 -10 118 1 166 36
252 129 315 89 60 222 75 330 37z m-3669 -100 l0 -104 -117 -3 -118 -3 -3
-617 -2 -618 -110 0 -110 0 0 620 0 620 -120 0 -120 0 0 105 0 105 350 0 350
0 0 -105z m328 -622 l2 -723 -115 0 -115 0 0 718 c0 395 3 722 7 726 4 3 54 5
112 4 l106 -3 3 -722z m468 719 c6 -4 16 -43 22 -87 11 -78 26 -179 56 -360 8
-49 22 -134 30 -188 9 -53 23 -141 32 -195 9 -53 19 -117 22 -142 l7 -45 13
60 c7 33 17 94 22 135 11 87 32 231 55 380 9 58 22 150 30 205 8 55 19 125 24
155 5 30 10 63 10 73 1 16 14 17 159 15 l157 -3 3 -722 2 -723 -105 0 -105 0
0 489 c0 269 -3 498 -7 508 -5 12 -12 -14 -20 -72 -14 -100 -36 -249 -59 -400
-23 -157 -42 -292 -57 -400 -7 -55 -16 -106 -20 -112 -6 -9 -40 -13 -112 -13
l-104 0 -6 48 c-3 26 -10 65 -16 87 -5 22 -13 72 -19 110 -5 39 -17 113 -25
165 -9 52 -23 138 -31 190 -38 243 -44 278 -52 320 -6 30 -10 -119 -11 -437
l-1 -483 -105 0 -105 0 0 718 c0 395 3 722 7 725 9 9 295 9 309 -1z m2109 -29
c4 -21 10 -58 15 -83 10 -50 25 -138 45 -275 31 -201 45 -295 60 -385 9 -52
23 -138 31 -190 8 -52 21 -133 29 -180 13 -81 30 -198 39 -268 l5 -32 -114 0
-113 0 -5 38 c-3 20 -11 79 -18 130 l-13 93 -140 -3 -141 -3 -8 -55 c-4 -30
-13 -88 -19 -127 l-11 -73 -103 0 c-116 0 -110 -5 -95 81 13 70 35 206 56 339
33 211 47 297 60 380 8 47 21 129 30 183 8 53 22 141 30 195 9 53 23 136 32
185 l15 87 164 0 163 0 6 -37z m1740 -68 l0 -100 -117 -3 -118 -3 0 -619 0
-620 -115 0 -115 0 0 620 0 619 -117 3 -118 3 -3 89 c-2 49 -1 95 2 103 5 11
70 13 353 11 l348 -3 0 -100z"/>
<path d="M3736 3410 c-4 -30 -11 -77 -16 -105 -5 -27 -16 -102 -25 -165 -9
-63 -23 -153 -30 -200 -8 -47 -16 -111 -20 -142 l-6 -58 100 0 c55 0 102 3
104 8 4 7 -9 115 -37 307 -8 55 -22 150 -31 210 -9 61 -19 130 -23 155 l-8 45
-8 -55z"/>
</g>
</svg>
